<svg width="32" height="32" viewBox="0 0 72 72" fill="none" xmlns="http://www.w3.org/2000/svg">
  <defs>
    <linearGradient id="prizm-spec-fav" x1="0" y1="0" x2="1" y2="0">
      <stop offset="0%" stop-color="#7F77DD"/>
      <stop offset="40%" stop-color="#1D9E75"/>
      <stop offset="75%" stop-color="#EF9F27"/>
      <stop offset="100%" stop-color="#D4537E"/>
    </linearGradient>
  </defs>
  <!-- Diamond fill facets -->
  <polygon points="36,4 68,36 36,68 4,36" fill="#7F77DD" opacity="0.09"/>
  <polygon points="36,4 4,36 36,36" fill="#7F77DD" opacity="0.07"/>
  <polygon points="36,4 68,36 36,36" fill="#534AB7" opacity="0.07"/>
  <!-- Diamond outline -->
  <polygon points="36,4 68,36 36,68 4,36" fill="none" stroke="#7F77DD" stroke-width="1.5" stroke-linejoin="round"/>
  <!-- Inner cross hairlines -->
  <line x1="36" y1="4" x2="36" y2="68" stroke="#AFA9EC" stroke-width="0.8" opacity="0.45"/>
  <line x1="4" y1="36" x2="68" y2="36" stroke="#AFA9EC" stroke-width="0.8" opacity="0.45"/>
  <!-- Nodes -->
  <circle cx="36" cy="4"  r="3.2" fill="#7F77DD" stroke="white" stroke-width="1.2"/>
  <circle cx="4"  cy="36" r="2.8" fill="#7F77DD" stroke="white" stroke-width="1.1"/>
  <circle cx="68" cy="36" r="2.8" fill="#7F77DD" stroke="white" stroke-width="1.1"/>
  <circle cx="36" cy="68" r="3.2" fill="#534AB7" stroke="white" stroke-width="1.2"/>
  <circle cx="36" cy="36" r="4.2" fill="#7F77DD" stroke="white" stroke-width="1.5"/>
  <circle cx="20" cy="20" r="2.4" fill="#AFA9EC" stroke="white" stroke-width="1.0"/>
  <circle cx="52" cy="20" r="2.4" fill="#AFA9EC" stroke="white" stroke-width="1.0"/>
  <circle cx="20" cy="52" r="2.4" fill="#378ADD" stroke="white" stroke-width="1.0"/>
  <circle cx="52" cy="52" r="2.4" fill="#1D9E75" stroke="white" stroke-width="1.0"/>
  <!-- Spectrum baseline -->
  <line x1="12" y1="72" x2="60" y2="72" stroke="url(#prizm-spec-fav)" stroke-width="2.2" stroke-linecap="round"/>
</svg>
