<svg width="36" height="36" viewBox="0 0 72 72" fill="none" xmlns="http://www.w3.org/2000/svg">
  <defs>
    <linearGradient id="prizm-spec-dark" x1="0" y1="0" x2="1" y2="0">
      <stop offset="0%" stop-color="#7F77DD"/>
      <stop offset="40%" stop-color="#1D9E75"/>
      <stop offset="75%" stop-color="#EF9F27"/>
      <stop offset="100%" stop-color="#D4537E"/>
    </linearGradient>
  </defs>
  <!-- Diamond fill facets -->
  <polygon points="36,4 68,36 36,68 4,36" fill="#AFA9EC" opacity="0.16"/>
  <polygon points="36,4 4,36 36,36" fill="#AFA9EC" opacity="0.07"/>
  <polygon points="36,4 68,36 36,36" fill="#CECBF6" opacity="0.07"/>
  <!-- Diamond outline -->
  <polygon points="36,4 68,36 36,68 4,36" fill="none" stroke="#AFA9EC" stroke-width="1.25" stroke-linejoin="round" opacity="0.7"/>
  <!-- Inner cross hairlines -->
  <line x1="36" y1="4" x2="36" y2="68" stroke="#AFA9EC" stroke-width="0.6" opacity="0.45"/>
  <line x1="4" y1="36" x2="68" y2="36" stroke="#AFA9EC" stroke-width="0.6" opacity="0.45"/>
  <!-- Diagonal facet lines -->
  <line x1="20" y1="20" x2="52" y2="52" stroke="#AFA9EC" stroke-width="0.5" opacity="0.22"/>
  <line x1="52" y1="20" x2="20" y2="52" stroke="#AFA9EC" stroke-width="0.5" opacity="0.22"/>
  <!-- Neural arcs — outer ring -->
  <path d="M36,4 Q50,20 52,20" fill="none" stroke="#AFA9EC" stroke-width="0.9" opacity="0.55"/>
  <path d="M36,4 Q22,20 20,20" fill="none" stroke="#AFA9EC" stroke-width="0.9" opacity="0.55"/>
  <path d="M20,20 Q10,28 4,36" fill="none" stroke="#AFA9EC" stroke-width="0.8" opacity="0.45"/>
  <path d="M52,20 Q62,28 68,36" fill="none" stroke="#CECBF6" stroke-width="0.8" opacity="0.45"/>
  <path d="M4,36 Q10,44 20,52" fill="none" stroke="#378ADD" stroke-width="0.8" opacity="0.45"/>
  <path d="M68,36 Q62,44 52,52" fill="none" stroke="#1D9E75" stroke-width="0.8" opacity="0.45"/>
  <path d="M20,52 Q28,62 36,68" fill="none" stroke="#378ADD" stroke-width="0.8" opacity="0.45"/>
  <path d="M52,52 Q44,62 36,68" fill="none" stroke="#1D9E75" stroke-width="0.8" opacity="0.45"/>
  <!-- Neural arcs — inner spokes to center -->
  <path d="M20,20 Q28,28 36,36" fill="none" stroke="#AFA9EC" stroke-width="0.6" opacity="0.30"/>
  <path d="M52,20 Q44,28 36,36" fill="none" stroke="#AFA9EC" stroke-width="0.6" opacity="0.30"/>
  <path d="M20,52 Q28,44 36,36" fill="none" stroke="#AFA9EC" stroke-width="0.6" opacity="0.30"/>
  <path d="M52,52 Q44,44 36,36" fill="none" stroke="#AFA9EC" stroke-width="0.6" opacity="0.30"/>
  <!-- Nodes -->
  <circle cx="36" cy="4"  r="3.2" fill="#AFA9EC" stroke="#0c0b1c" stroke-width="1.2"/>
  <circle cx="4"  cy="36" r="2.8" fill="#AFA9EC" stroke="#0c0b1c" stroke-width="1.1"/>
  <circle cx="68" cy="36" r="2.8" fill="#AFA9EC" stroke="#0c0b1c" stroke-width="1.1"/>
  <circle cx="36" cy="68" r="3.2" fill="#CECBF6" stroke="#0c0b1c" stroke-width="1.2"/>
  <circle cx="36" cy="36" r="4.2" fill="#AFA9EC" stroke="#0c0b1c" stroke-width="1.5"/>
  <circle cx="20" cy="20" r="2.4" fill="#AFA9EC" stroke="#0c0b1c" stroke-width="1.0"/>
  <circle cx="52" cy="20" r="2.4" fill="#AFA9EC" stroke="#0c0b1c" stroke-width="1.0"/>
  <circle cx="20" cy="52" r="2.4" fill="#378ADD" stroke="#0c0b1c" stroke-width="1.0"/>
  <circle cx="52" cy="52" r="2.4" fill="#1D9E75" stroke="#0c0b1c" stroke-width="1.0"/>
  <!-- Spectrum baseline -->
  <line x1="12" y1="72" x2="60" y2="72" stroke="url(#prizm-spec-dark)" stroke-width="2.2" stroke-linecap="round"/>
</svg>
