<svg width="36" height="36" viewBox="0 0 72 72" fill="none" xmlns="http://www.w3.org/2000/svg">
  <defs>
    <linearGradient id="prizm-spec" x1="0" y1="0" x2="1" y2="0">
      <stop offset="0%" stop-color="#7F77DD"/>
      <stop offset="40%" stop-color="#1D9E75"/>
      <stop offset="75%" stop-color="#EF9F27"/>
      <stop offset="100%" stop-color="#D4537E"/>
    </linearGradient>
  </defs>
  <!-- Diamond fill facets -->
  <polygon points="36,4 68,36 36,68 4,36" fill="#7F77DD" opacity="0.13"/>
  <polygon points="36,4 4,36 36,36" fill="#7F77DD" opacity="0.10"/>
  <polygon points="36,4 68,36 36,36" fill="#534AB7" opacity="0.10"/>
  <!-- Diamond outline -->
  <polygon points="36,4 68,36 36,68 4,36" fill="none" stroke="#7F77DD" stroke-width="2.0" stroke-linejoin="round"/>
  <!-- Inner cross hairlines -->
  <line x1="36" y1="4" x2="36" y2="68" stroke="#AFA9EC" stroke-width="1.0" opacity="0.50"/>
  <line x1="4" y1="36" x2="68" y2="36" stroke="#AFA9EC" stroke-width="1.0" opacity="0.50"/>
  <!-- Diagonal facet lines -->
  <line x1="20" y1="20" x2="52" y2="52" stroke="#AFA9EC" stroke-width="0.8" opacity="0.30"/>
  <line x1="52" y1="20" x2="20" y2="52" stroke="#AFA9EC" stroke-width="0.8" opacity="0.30"/>
  <!-- Neural arcs — outer ring -->
  <path d="M36,4 Q50,20 52,20" fill="none" stroke="#7F77DD" stroke-width="1.6" opacity="0.70"/>
  <path d="M36,4 Q22,20 20,20" fill="none" stroke="#7F77DD" stroke-width="1.6" opacity="0.70"/>
  <path d="M20,20 Q10,28 4,36" fill="none" stroke="#7F77DD" stroke-width="1.5" opacity="0.60"/>
  <path d="M52,20 Q62,28 68,36" fill="none" stroke="#534AB7" stroke-width="1.5" opacity="0.60"/>
  <path d="M4,36 Q10,44 20,52" fill="none" stroke="#378ADD" stroke-width="1.5" opacity="0.60"/>
  <path d="M68,36 Q62,44 52,52" fill="none" stroke="#1D9E75" stroke-width="1.5" opacity="0.60"/>
  <path d="M20,52 Q28,62 36,68" fill="none" stroke="#378ADD" stroke-width="1.5" opacity="0.60"/>
  <path d="M52,52 Q44,62 36,68" fill="none" stroke="#1D9E75" stroke-width="1.5" opacity="0.60"/>
  <!-- Neural arcs — inner spokes to center -->
  <path d="M20,20 Q28,28 36,36" fill="none" stroke="#AFA9EC" stroke-width="1.1" opacity="0.45"/>
  <path d="M52,20 Q44,28 36,36" fill="none" stroke="#AFA9EC" stroke-width="1.1" opacity="0.45"/>
  <path d="M20,52 Q28,44 36,36" fill="none" stroke="#AFA9EC" stroke-width="1.1" opacity="0.45"/>
  <path d="M52,52 Q44,44 36,36" fill="none" stroke="#AFA9EC" stroke-width="1.1" opacity="0.45"/>
  <!-- Nodes -->
  <circle cx="36" cy="4"  r="4.5" fill="#8B7FFF" stroke="white" stroke-width="1.5"/>
  <circle cx="4"  cy="36" r="4.0" fill="#8B7FFF" stroke="white" stroke-width="1.4"/>
  <circle cx="68" cy="36" r="4.0" fill="#8B7FFF" stroke="white" stroke-width="1.4"/>
  <circle cx="36" cy="68" r="4.5" fill="#6C5CE7" stroke="white" stroke-width="1.5"/>
  <circle cx="36" cy="36" r="5.5" fill="#8B7FFF" stroke="white" stroke-width="1.8"/>
  <circle cx="20" cy="20" r="3.5" fill="#C4BFFF" stroke="white" stroke-width="1.2"/>
  <circle cx="52" cy="20" r="3.5" fill="#C4BFFF" stroke="white" stroke-width="1.2"/>
  <circle cx="20" cy="52" r="3.5" fill="#4DA6FF" stroke="white" stroke-width="1.2"/>
  <circle cx="52" cy="52" r="3.5" fill="#2ECC71" stroke="white" stroke-width="1.2"/>
  <!-- Spectrum baseline -->
  <line x1="12" y1="72" x2="60" y2="72" stroke="url(#prizm-spec)" stroke-width="2.8" stroke-linecap="round"/>
</svg>
